name: LED 18
spacing: proportional
bounding-box: 12x18
family: LED
font-id: 1536
point-size: 18
average-width: 12
max-width: 12
x-height: 9
ascent: 15
descent: 4
line-height: 23
encoding: pc-geos
default-char: 0x30
underline-thickness: 2
underline-descent: 2
strikethrough-ascent: 6
converter: monobit v0.44
source-name: LED.FNT
source-path: ENSEMBLE/USERDATA/FONT/LED.FNT
source-format: pcgeos
history: label -char-from=pc-geos

0x20:
' ':
    -

    shift-up: 18
    right-bearing: 12


0x21:
'!':
    .@.
    @@@
    @@@
    @@@
    @@@
    .@.
    @@@
    @@@
    @@@
    .@.
    ...
    .@.
    @@@
    @@@
    .@.

    left-bearing: 1
    right-bearing: 2


0x22:
'"':
    .@....@.
    @@@..@@@
    @@@..@@@
    @@@..@@@
    .@....@.

    shift-up: 10
    left-bearing: 1
    right-bearing: 2


0x23:
'#':
    ...@...@...
    ..@@@.@@@..
    ..@@@.@@@..
    ...@...@...
    .@@@@.@@@@.
    @@@@@@@@@@@
    .@@@@.@@@@.
    ...@...@...
    .@@@@.@@@@.
    @@@@@@@@@@@
    .@@@@.@@@@.
    ...@...@...
    ..@@@.@@@..
    ..@@@.@@@..
    ...@...@...

    right-bearing: 1


0x24:
'$':
    ....@....
    .@@@@@@@@
    @.@@@@@@.
    @@.@@@@..
    @@@.@....
    @@@.@....
    @@.@@@@@.
    @.@@@@@.@
    .@@@@@.@@
    ....@.@@@
    ....@.@@@
    ..@@@@.@@
    .@@@@@@.@
    @@@@@@@@.
    ....@....

    left-bearing: 1
    right-bearing: 2


0x27:
''':
    .@.
    @@@
    @@@
    @@@
    .@.

    shift-up: 10
    left-bearing: 1
    right-bearing: 2


0x28:
'(':
    ...@@@
    ..@@@.
    .@.@..
    @@@...
    @@@...
    @@@...
    @@....
    @.....
    @@....
    @@@...
    @@@...
    @@@...
    .@.@..
    ..@@@.
    ...@@@

    left-bearing: 1
    right-bearing: 2


0x29:
')':
    @@@...
    .@@@..
    ..@.@.
    ...@@@
    ...@@@
    ...@@@
    ....@@
    .....@
    ....@@
    ...@@@
    ...@@@
    ...@@@
    ..@.@.
    .@@@..
    @@@...

    left-bearing: 1
    right-bearing: 2


0x2a:
'*':
    .....@.....
    @@@.@@@.@@@
    @@@.@@@.@@@
    @@@@.@.@@@@
    ..@@@@@@@..
    .@@@.@.@@@.
    @@@@@.@@@@@
    .@@@.@.@@@.
    ..@@@@@@@..
    @@@@.@.@@@@
    @@@.@@@.@@@
    @@@.@@@.@@@
    .....@.....

    shift-up: 1
    right-bearing: 1


0x2b:
'+':
    .....@.....
    ....@@@....
    ....@@@....
    ....@@@....
    ....@@@....
    .@@@.@.@@@.
    @@@@@.@@@@@
    .@@@.@.@@@.
    ....@@@....
    ....@@@....
    ....@@@....
    ....@@@....
    .....@.....

    shift-up: 1
    right-bearing: 1


0x2c:
',':
    .@@@
    .@@@
    .@@@
    @@@.
    @@..

    shift-up: -2
    left-bearing: 1
    right-bearing: 2


0x2d:
'-':
    .@@@@.
    @@@@@@
    .@@@@.

    shift-up: 6
    left-bearing: 1
    right-bearing: 2


0x2e:
'.':
    @@@
    @@@
    @@@

    left-bearing: 1
    right-bearing: 2


0x2f:
'/':
    .........@.
    ........@@@
    .......@@@.
    .......@@@.
    ......@@@..
    ......@@...
    ....@.@....
    ...@@......
    ..@@@......
    .@@@.......
    .@@@.......
    @@@........
    .@.........

    shift-up: 1
    right-bearing: 1


0x30:
'0':
    .@@@@@@@.
    @.@@@@@.@
    @@.@@@.@@
    @@@...@@@
    @@@...@@@
    @@@...@@@
    @@.....@@
    @.......@
    @@.....@@
    @@@...@@@
    @@@...@@@
    @@@...@@@
    @@.@@@.@@
    @.@@@@@.@
    .@@@@@@@.

    left-bearing: 1
    right-bearing: 2


0x31:
'1':
    ..@
    .@@
    @@@
    @@@
    @@@
    @@@
    .@@
    ..@
    .@@
    @@@
    @@@
    @@@
    @@@
    .@@
    ..@

    left-bearing: 4
    right-bearing: 5


0x32:
'2':
    @@@@@@@@.
    .@@@@@@.@
    ..@@@@.@@
    ......@@@
    ......@@@
    ......@@@
    .@@@@@.@@
    @.@@@@@.@
    @@.@@@@@.
    @@@......
    @@@......
    @@@......
    @@.@@@@..
    @.@@@@@@.
    .@@@@@@@@

    left-bearing: 1
    right-bearing: 2


0x33:
'3':
    @@@@@@@@.
    .@@@@@@.@
    ..@@@@.@@
    ......@@@
    ......@@@
    ......@@@
    ..@@@@.@@
    .@@@@@@.@
    ..@@@@.@@
    ......@@@
    ......@@@
    ......@@@
    ..@@@@.@@
    .@@@@@@.@
    @@@@@@@@.

    left-bearing: 1
    right-bearing: 2


0x34:
'4':
    @.......@
    @@.....@@
    @@@...@@@
    @@@...@@@
    @@@...@@@
    @@@...@@@
    @@.@@@.@@
    @.@@@@@.@
    .@@@@@.@@
    ......@@@
    ......@@@
    ......@@@
    ......@@@
    .......@@
    ........@

    left-bearing: 1
    right-bearing: 2


0x35:
'5':
    .@@@@@@@@
    @.@@@@@@.
    @@.@@@@..
    @@@......
    @@@......
    @@@......
    @@.@@@@@.
    @.@@@@@.@
    .@@@@@.@@
    ......@@@
    ......@@@
    ......@@@
    ..@@@@.@@
    .@@@@@@.@
    @@@@@@@@.

    left-bearing: 1
    right-bearing: 2


0x36:
'6':
    .@@@@@@@@
    @.@@@@@@.
    @@.@@@@..
    @@@......
    @@@......
    @@@......
    @@.@@@@@.
    @.@@@@@.@
    @@.@@@.@@
    @@@...@@@
    @@@...@@@
    @@@...@@@
    @@.@@@.@@
    @.@@@@@.@
    .@@@@@@@.

    left-bearing: 1
    right-bearing: 2


0x37:
'7':
    @@@@@@@@.
    .@@@@@@.@
    ..@@@@.@@
    ......@@@
    ......@@@
    ......@@@
    .......@@
    ........@
    .......@@
    ......@@@
    ......@@@
    ......@@@
    ......@@@
    .......@@
    ........@

    left-bearing: 1
    right-bearing: 2


0x38:
'8':
    .@@@@@@@.
    @.@@@@@.@
    @@.@@@.@@
    @@@...@@@
    @@@...@@@
    @@@...@@@
    @@.@@@.@@
    @.@@@@@.@
    @@.@@@.@@
    @@@...@@@
    @@@...@@@
    @@@...@@@
    @@.@@@.@@
    @.@@@@@.@
    .@@@@@@@.

    left-bearing: 1
    right-bearing: 2


0x39:
'9':
    .@@@@@@@.
    @.@@@@@.@
    @@.@@@.@@
    @@@...@@@
    @@@...@@@
    @@@...@@@
    @@.@@@.@@
    @.@@@@@.@
    .@@@@@.@@
    ......@@@
    ......@@@
    ......@@@
    ..@@@@.@@
    .@@@@@@.@
    @@@@@@@@.

    left-bearing: 1
    right-bearing: 2


0x3a:
':':
    @@@
    @@@
    @@@
    ...
    ...
    ...
    @@@
    @@@
    @@@

    shift-up: 3
    left-bearing: 1
    right-bearing: 2


0x3b:
';':
    .@@@
    .@@@
    .@@@
    ....
    ....
    ....
    .@@@
    .@@@
    .@@@
    @@@.
    @@..

    shift-up: 1
    right-bearing: 2


0x3c:
'<':
    .......@
    ......@@
    .....@@@
    ....@@@@
    ...@@@@.
    ..@@@@..
    .@.@@...
    @@@.....
    .@.@@...
    ..@@@@..
    ...@@@@.
    ....@@@@
    .....@@@
    ......@@
    .......@

    left-bearing: 1
    right-bearing: 2


0x3d:
'=':
    .@@@@.
    @@@@@@
    .@@@@.
    ......
    .@@@@.
    @@@@@@
    .@@@@.

    shift-up: 4
    left-bearing: 1
    right-bearing: 2


0x3e:
'>':
    @.......
    @@......
    @@@.....
    @@@@....
    .@@@@...
    ..@@@@..
    ...@@.@.
    .....@@@
    ...@@.@.
    ..@@@@..
    .@@@@...
    @@@@....
    @@@.....
    @@......
    @.......

    left-bearing: 1
    right-bearing: 2


0x3f:
'?':
    .@@@@...
    @@@@@@..
    .@@@@.@.
    .....@@@
    .....@@@
    ....@@@.
    ...@.@..
    ..@@@...
    ..@@@...
    ...@....
    ........
    ...@....
    ..@@@...
    ..@@@...
    ...@....

    left-bearing: 2
    right-bearing: 2


0x41:
'A':
    .@@@@@@@.
    @.@@@@@.@
    @@.@@@.@@
    @@@...@@@
    @@@...@@@
    @@@...@@@
    @@.@@@.@@
    @.@@@@@.@
    @@.@@@.@@
    @@@...@@@
    @@@...@@@
    @@@...@@@
    @@@...@@@
    @@.....@@
    @.......@

    left-bearing: 1
    right-bearing: 2


0x42:
'B':
    .@@@@@...
    @.@@@@@..
    @@.@@@.@.
    @@@...@@@
    @@@...@@@
    @@@...@@@
    @@.@@@.@@
    @.@@@@@.@
    @@.@@@.@@
    @@@...@@@
    @@@...@@@
    @@@...@@@
    @@.@@@.@.
    @.@@@@@..
    .@@@@@...

    left-bearing: 1
    right-bearing: 2


0x43:
'C':
    .@@@@@@@@
    @.@@@@@@.
    @@.@@@@..
    @@@......
    @@@......
    @@@......
    @@.......
    @........
    @@.......
    @@@......
    @@@......
    @@@......
    @@.@@@@..
    @.@@@@@@.
    .@@@@@@@@

    left-bearing: 1
    right-bearing: 2


0x44:
'D':
    .@@@@@...
    @.@@@@@..
    @@.@@@.@.
    @@@...@@@
    @@@...@@@
    @@@...@@@
    @@.....@@
    @.......@
    @@.....@@
    @@@...@@@
    @@@...@@@
    @@@...@@@
    @@.@@@.@.
    @.@@@@@..
    .@@@@@...

    left-bearing: 1
    right-bearing: 2


0x45:
'E':
    .@@@@@@@@
    @.@@@@@@.
    @@.@@@@..
    @@@......
    @@@......
    @@@......
    @@.@@@@..
    @.@@@@@@.
    @@.@@@@..
    @@@......
    @@@......
    @@@......
    @@.@@@@..
    @.@@@@@@.
    .@@@@@@@@

    left-bearing: 1
    right-bearing: 2


0x46:
'F':
    .@@@@@@@@
    @.@@@@@@.
    @@.@@@@..
    @@@......
    @@@......
    @@@......
    @@.@@@@..
    @.@@@@@@.
    @@.@@@@..
    @@@......
    @@@......
    @@@......
    @@@......
    @@.......
    @........

    left-bearing: 1
    right-bearing: 2


0x47:
'G':
    .@@@@@@@.
    @.@@@@@..
    @@.@@@...
    @@@......
    @@@......
    @@@......
    @@...@@@.
    @...@@@.@
    @@...@.@@
    @@@...@@@
    @@@...@@@
    @@@...@@@
    @@.@@@.@@
    @.@@@@@.@
    .@@@@@@@.

    left-bearing: 1
    right-bearing: 2


0x48:
'H':
    @.......@
    @@.....@@
    @@@...@@@
    @@@...@@@
    @@@...@@@
    @@@...@@@
    @@.@@@.@@
    @.@@@@@.@
    @@.@@@.@@
    @@@...@@@
    @@@...@@@
    @@@...@@@
    @@@...@@@
    @@.....@@
    @.......@

    left-bearing: 1
    right-bearing: 2


0x49:
'I':
    .@.
    @@@
    @@@
    @@@
    @@@
    @@@
    @@@
    .@.
    @@@
    @@@
    @@@
    @@@
    @@@
    @@@
    .@.

    left-bearing: 4
    right-bearing: 5


0x4a:
'J':
    ........@
    .......@@
    ......@@@
    ......@@@
    ......@@@
    ......@@@
    .......@@
    @.......@
    @@.....@@
    @@@...@@@
    @@@...@@@
    @@@...@@@
    @@.@@@.@@
    @.@@@@@.@
    .@@@@@@@.

    left-bearing: 1
    right-bearing: 2


0x4b:
'K':
    @......@@
    @@....@@@
    @@@..@@@@
    @@@.@@@@.
    @@@.@@@..
    @@@.@@...
    @@.@@....
    @.@@.....
    @@.@@....
    @@@.@@...
    @@@.@@@..
    @@@.@@@@.
    @@@..@@@@
    @@....@@@
    @......@@

    left-bearing: 1
    right-bearing: 2


0x4c:
'L':
    @........
    @@.......
    @@@......
    @@@......
    @@@......
    @@@......
    @@.......
    @........
    @@.......
    @@@......
    @@@......
    @@@......
    @@.@@@@..
    @.@@@@@@.
    .@@@@@@@@

    left-bearing: 1
    right-bearing: 2


0x4d:
'M':
    .@@@@@@@.
    @.@@@@@.@
    @@.@@@.@@
    @@@.@.@@@
    @@@.@.@@@
    @@@.@.@@@
    @@..@..@@
    @...@...@
    @@..@..@@
    @@@...@@@
    @@@...@@@
    @@@...@@@
    @@@...@@@
    @@.....@@
    @.......@

    left-bearing: 1
    right-bearing: 2


0x4e:
'N':
    .@@@@@...
    @.@@@@@..
    @@.@@@.@.
    @@@...@@@
    @@@...@@@
    @@@...@@@
    @@.....@@
    @.......@
    @@.....@@
    @@@...@@@
    @@@...@@@
    @@@...@@@
    @@@...@@@
    @@.....@@
    @.......@

    left-bearing: 1
    right-bearing: 2


0x4f:
'O':
    .@@@@@@@.
    @.@@@@@.@
    @@.@@@.@@
    @@@...@@@
    @@@...@@@
    @@@...@@@
    @@.....@@
    @.......@
    @@.....@@
    @@@...@@@
    @@@...@@@
    @@@...@@@
    @@.@@@.@@
    @.@@@@@.@
    .@@@@@@@.

    left-bearing: 1
    right-bearing: 2


0x50:
'P':
    .@@@@@@@.
    @.@@@@@.@
    @@.@@@.@@
    @@@...@@@
    @@@...@@@
    @@@...@@@
    @@.@@@.@@
    @.@@@@@..
    @@.@@@...
    @@@......
    @@@......
    @@@......
    @@@......
    @@.......
    @........

    left-bearing: 1
    right-bearing: 2


0x51:
'Q':
    .@@@@@@@...
    @.@@@@@.@..
    @@.@@@.@@..
    @@@...@@@..
    @@@...@@@..
    @@@...@@@..
    @@.....@@..
    @.......@..
    @@.....@@..
    @@@...@@@..
    @@@.@.@@@..
    @@@..@@@@..
    @@.@@@.@@..
    @.@@@@@.@@@
    .@@@@@@@.@@

    left-bearing: 1


0x52:
'R':
    .@@@@@...
    @.@@@@@..
    @@.@@@.@.
    @@@...@@@
    @@@...@@@
    @@@...@@@
    @@.@@@.@.
    @.@@@@@..
    @@.@@@...
    @@@.@@...
    @@@.@@@..
    @@@.@@@@.
    @@@..@@@@
    @@....@@@
    @......@@

    left-bearing: 1
    right-bearing: 2


0x53:
'S':
    .@@@@@@@@
    @.@@@@@@.
    @@.@@@@..
    @@@......
    @@@......
    @@@......
    @@.@@@@@.
    @.@@@@@.@
    .@@@@@.@@
    ......@@@
    ......@@@
    ......@@@
    ..@@@@.@@
    .@@@@@@.@
    @@@@@@@@.

    left-bearing: 1
    right-bearing: 2


0x54:
'T':
    @@@@@@@@@@@
    .@@@@.@@@@.
    ..@@.@.@@..
    ....@@@....
    ....@@@....
    ....@@@....
    ....@@@....
    .....@.....
    ....@@@....
    ....@@@....
    ....@@@....
    ....@@@....
    ....@@@....
    ....@@@....
    .....@.....

    right-bearing: 1


0x55:
'U':
    @.......@
    @@.....@@
    @@@...@@@
    @@@...@@@
    @@@...@@@
    @@@...@@@
    @@.....@@
    @.......@
    @@.....@@
    @@@...@@@
    @@@...@@@
    @@@...@@@
    @@.@@@.@@
    @.@@@@@.@
    .@@@@@@@.

    left-bearing: 1
    right-bearing: 2


0x56:
'V':
    @.......@
    @@.....@@
    @@@...@@@
    @@@...@@@
    @@@...@@@
    @@@...@@@
    @@.....@@
    @.......@
    @@.....@@
    @@@...@@@
    @@@...@@@
    @@@...@@@
    .@.@@@.@.
    ..@@@@@..
    ...@@@...

    left-bearing: 1
    right-bearing: 2


0x57:
'W':
    @.......@
    @@.....@@
    @@@...@@@
    @@@...@@@
    @@@...@@@
    @@@...@@@
    @@..@..@@
    @...@...@
    @@..@..@@
    @@@.@.@@@
    @@@.@.@@@
    @@@.@.@@@
    @@.@@@.@@
    @.@@@@@.@
    .@@@@@@@.

    left-bearing: 1
    right-bearing: 2


0x58:
'X':
    @@.....@@
    @@@...@@@
    @@@@.@@@@
    .@@@.@@@.
    ..@@@@@..
    ...@@@...
    ...@@@...
    ....@....
    ...@@@...
    ...@@@...
    ..@@@@@..
    .@@@.@@@.
    @@@@.@@@@
    @@@...@@@
    @@.....@@

    left-bearing: 1
    right-bearing: 2


0x59:
'Y':
    @@.....@@
    @@@...@@@
    @@@@.@@@@
    .@@@.@@@.
    ..@@@@@..
    ...@@@...
    ...@@@...
    ....@....
    ...@@@...
    ...@@@...
    ...@@@...
    ...@@@...
    ...@@@...
    ...@@@...
    ....@....

    left-bearing: 1
    right-bearing: 2


0x5a:
'Z':
    @@@@@@@@.
    .@@@@@@.@
    ..@@@@.@@
    ......@@@
    ......@@@
    .....@@@.
    .....@@..
    ...@.@...
    ..@@.....
    .@@@.....
    @@@......
    @@@......
    @@.@@@@..
    @.@@@@@@.
    .@@@@@@@@

    left-bearing: 1
    right-bearing: 2


0x5b:
'[':
    .@@@@@
    @.@@@.
    @@.@..
    @@@...
    @@@...
    @@@...
    @@....
    @.....
    @@....
    @@@...
    @@@...
    @@@...
    @@.@..
    @.@@@.
    .@@@@@

    left-bearing: 1
    right-bearing: 2


0x5c:
'\':
    .@.........
    @@@........
    .@@@.......
    .@@@.......
    ..@@@......
    ...@@......
    ....@.@....
    ......@@...
    ......@@@..
    .......@@@.
    .......@@@.
    ........@@@
    .........@.

    shift-up: 1
    right-bearing: 1


0x5d:
']':
    @@@@@.
    .@@@.@
    ..@.@@
    ...@@@
    ...@@@
    ...@@@
    ....@@
    .....@
    ....@@
    ...@@@
    ...@@@
    ...@@@
    ..@.@@
    .@@@.@
    @@@@@.

    left-bearing: 1
    right-bearing: 2


0x5e:
'^':
    ..@..
    .@@@.
    @@.@@

    shift-up: 13
    left-bearing: 1
    right-bearing: 2


